<mxfile host="app.diagrams.net" modified="2021-07-25T22:41:42.027Z" agent="5.0 (X11; Linux x86_64) AppleWebKit/537.36 (KHTML, like Gecko) Chrome/92.0.4515.107 Safari/537.36" etag="-lekQDzx5G7lFsSxwaQq" version="14.9.2" type="github">
  <diagram id="I4R6AY4gsS_oCI_9pz-P" name="Page-1">
    <mxGraphModel dx="868" dy="458" grid="1" gridSize="10" guides="1" tooltips="1" connect="1" arrows="1" fold="1" page="1" pageScale="1" pageWidth="850" pageHeight="1100" math="0" shadow="0">
      <root>
        <mxCell id="0" />
        <mxCell id="1" parent="0" />
        <mxCell id="TWabliPMHv7CZfAZwRn3-3" value="" style="edgeStyle=orthogonalEdgeStyle;rounded=0;orthogonalLoop=1;jettySize=auto;html=1;strokeWidth=3;fillColor=#008a00;strokeColor=#005700;" edge="1" parent="1" source="TWabliPMHv7CZfAZwRn3-1" target="TWabliPMHv7CZfAZwRn3-2">
          <mxGeometry relative="1" as="geometry" />
        </mxCell>
        <mxCell id="TWabliPMHv7CZfAZwRn3-1" value="Server" style="image;html=1;image=img/lib/clip_art/computers/Server_128x128.png" vertex="1" parent="1">
          <mxGeometry x="150" y="100" width="80" height="80" as="geometry" />
        </mxCell>
        <mxCell id="TWabliPMHv7CZfAZwRn3-12" style="edgeStyle=orthogonalEdgeStyle;rounded=0;orthogonalLoop=1;jettySize=auto;html=1;strokeWidth=3;" edge="1" parent="1" source="TWabliPMHv7CZfAZwRn3-2" target="TWabliPMHv7CZfAZwRn3-11">
          <mxGeometry relative="1" as="geometry" />
        </mxCell>
        <mxCell id="TWabliPMHv7CZfAZwRn3-2" value="Client" style="image;html=1;image=img/lib/clip_art/computers/Server_128x128.png" vertex="1" parent="1">
          <mxGeometry x="390" y="100" width="80" height="80" as="geometry" />
        </mxCell>
        <mxCell id="TWabliPMHv7CZfAZwRn3-10" value="gRPC" style="text;html=1;strokeColor=none;fillColor=none;align=center;verticalAlign=middle;whiteSpace=wrap;rounded=0;" vertex="1" parent="1">
          <mxGeometry x="290" y="140" width="40" height="20" as="geometry" />
        </mxCell>
        <mxCell id="TWabliPMHv7CZfAZwRn3-11" value="User" style="outlineConnect=0;fontColor=#232F3E;gradientColor=none;fillColor=#232F3E;strokeColor=none;dashed=0;verticalLabelPosition=bottom;verticalAlign=top;align=center;html=1;fontSize=12;fontStyle=0;aspect=fixed;pointerEvents=1;shape=mxgraph.aws4.client;" vertex="1" parent="1">
          <mxGeometry x="620" y="102" width="78" height="76" as="geometry" />
        </mxCell>
        <mxCell id="TWabliPMHv7CZfAZwRn3-13" value="HTTP/1.1" style="text;html=1;strokeColor=none;fillColor=none;align=center;verticalAlign=middle;whiteSpace=wrap;rounded=0;" vertex="1" parent="1">
          <mxGeometry x="530" y="140" width="40" height="20" as="geometry" />
        </mxCell>
        <mxCell id="TWabliPMHv7CZfAZwRn3-14" value="HTTP/2" style="text;html=1;strokeColor=none;fillColor=none;align=center;verticalAlign=middle;whiteSpace=wrap;rounded=0;" vertex="1" parent="1">
          <mxGeometry x="290" y="110" width="40" height="20" as="geometry" />
        </mxCell>
      </root>
    </mxGraphModel>
  </diagram>
</mxfile>
